<svg id="Layer_1" enable-background="new 0 0 512 512" height="512" viewBox="0 0 512 512" width="512" xmlns="http://www.w3.org/2000/svg"><g><path d="m58.592 22.779v466.442c0 12.581 10.199 22.779 22.779 22.779h349.257c12.581 0 22.779-10.199 22.779-22.779v-466.442c.001-12.58-10.198-22.779-22.779-22.779h-64.085v64.127c0 9.39-7.612 17.001-17.001 17.001h-182.396c-9.39 0-17.001-7.612-17.001-17.001v-64.127h-68.773c-12.581 0-22.78 10.199-22.78 22.779zm116.127 137.002c2.369-7.43 9.471-12.307 17.272-11.801 7.783.493 14.232 6.218 15.645 13.887l35.258 191.401 38.18-148.044c1.918-7.438 8.585-12.665 16.265-12.754.065-.001.133-.001.199-.001 7.599 0 14.285 5.047 16.357 12.375l24.926 88.13 4.113-4.108c3.188-3.182 7.509-4.97 12.013-4.97h44.829c9.389 0 17.001 7.612 17.001 17.001s-7.612 17.001-17.001 17.001h-37.795l-19.628 19.596c-4.266 4.26-10.47 5.942-16.305 4.419-5.834-1.522-10.425-6.021-12.066-11.823l-15.69-55.475-41.706 161.714c-1.942 7.529-8.733 12.755-16.457 12.755-.201 0-.401-.003-.603-.01-7.973-.28-14.678-6.066-16.124-13.911l-36.912-200.395-22.729 71.256c-2.249 7.05-8.798 11.835-16.197 11.835h-35.341c-9.389 0-17.001-7.612-17.001-17.001s7.612-17.001 17.001-17.001h22.918z"/><path d="m184.147 0h148.393v47.125h-148.393z"/></g></svg>