<svg id="Capa_1" enable-background="new 0 0 512 512" height="512" viewBox="0 0 512 512" width="512" xmlns="http://www.w3.org/2000/svg"><g><path d="m507.212 184.988-46.588-173.867c-2.144-8.002-10.369-12.751-18.371-10.607l-48.296 12.941c-3.842 1.03-7.119 3.544-9.108 6.989s-2.528 7.54-1.499 11.382l46.588 173.867c2.144 8.002 10.369 12.751 18.371 10.607l48.296-12.941c3.843-1.03 7.119-3.544 9.108-6.989 1.99-3.445 2.529-7.54 1.499-11.382z"/><path d="m15.398 184.772c-8.002 2.144-12.751 10.369-10.607 18.371l11.647 43.467c2.144 8.002 10.369 12.751 18.371 10.607l17.822-4.775-19.411-72.446z"/><path d="m92.325 143.454-11.155 2.989c-13.337 3.574-21.251 17.282-17.678 30.619l16.823 62.785c3.574 13.337 17.282 21.251 30.619 17.678l11.156-2.989z"/><circle cx="256" cy="247" r="37.5"/><path d="m146.838 100.377c-18.034 4.832-28.736 23.369-23.903 41.402l26.501 98.901c4.832 18.034 23.369 28.736 41.402 23.903-1.516-5.61-2.338-11.502-2.338-17.584 0-37.22 30.28-67.5 67.5-67.5 31.221 0 57.549 21.31 65.228 50.146l78.439-21.018-44-164.207z"/><path d="m214.017 299.797-91.54 190.709c-3.585 7.468-.437 16.429 7.032 20.014 2.093 1.005 4.303 1.48 6.48 1.48 5.588 0 10.954-3.138 13.534-8.513l91.477-190.577v-.111c-10.022-2.284-19.199-6.799-26.983-13.002z"/><path d="m297.983 299.797c-7.784 6.203-16.961 10.718-26.983 13.002v.111l91.477 190.578c2.58 5.375 7.945 8.513 13.534 8.513 2.176 0 4.387-.476 6.48-1.48 7.469-3.585 10.617-12.545 7.032-20.014z"/><path d="m256 314.5c-5.139 0-10.139-.597-14.952-1.69l-.048.1v184.09c0 8.284 6.716 15 15 15s15-6.716 15-15v-184.09l-.048-.099c-4.813 1.092-9.813 1.689-14.952 1.689z"/></g></svg>
